<svg xmlns="http://www.w3.org/2000/svg" width="145" height="140" viewBox="0 0 145 140">
  <g id="그룹_889" data-name="그룹 889" transform="translate(-213 299)">
    <g id="그룹_892" data-name="그룹 892" transform="translate(-1242.414 254.586)">
      <circle id="타원_17" data-name="타원 17" cx="35" cy="35" r="35" transform="translate(1455.414 -553.586)" fill="#eceff0"/>
      <g id="Ethereum-Logo.wine" transform="translate(1471.265 -549.518)">
        <path id="패스_504" data-name="패스 504" d="M125.166,42.316l.415.414,18.988-11.224L125.581,0l-.415,1.41Z" transform="translate(-106.593)" fill="#343434"/>
        <path id="패스_505" data-name="패스 505" d="M18.988,42.73V0L0,31.506Z" fill="#8c8c8c"/>
        <path id="패스_506" data-name="패스 506" d="M126.386,262.662l.234.683,19-26.757-19,11.218-.234.285Z" transform="translate(-107.632 -201.48)" fill="#3c3c3b"/>
        <path id="패스_507" data-name="패스 507" d="M0,236.585l18.988,26.758V247.8Z" transform="translate(0 -201.478)" fill="#8c8c8c"/>
        <path id="패스_508" data-name="패스 508" d="M127.961,154.159v19.854l18.988-11.224Z" transform="translate(-108.973 -131.283)" fill="#141414"/>
        <path id="패스_509" data-name="패스 509" d="M18.988,154.159,0,162.789l18.988,11.224Z" transform="translate(0 -131.283)" fill="#393939"/>
      </g>
    </g>
    <g id="그룹_863" data-name="그룹 863" transform="translate(37)">
      <g id="그룹_874" data-name="그룹 874" transform="translate(-99 -103)">
        <path id="패스_491" data-name="패스 491" d="M115.5,134A52.5,52.5,0,1,0,63,81.5,52.5,52.5,0,0,0,115.5,134Z" transform="translate(252 -190)" fill="#2775ca"/>
        <path id="패스_492" data-name="패스 492" d="M103.805,115.558a1.571,1.571,0,0,1-2.143,1.565,39.372,39.372,0,0,1,0-74.984A1.556,1.556,0,0,1,103.8,43.7v3.072a2.414,2.414,0,0,1-1.448,2.087,32.754,32.754,0,0,0,.058,61.54,2.442,2.442,0,0,1,1.448,2.087v3.07H103.8Zm12.759-12.131a1.619,1.619,0,0,1-1.622,1.622H111.7a1.62,1.62,0,0,1-1.623-1.622V98.213c-7.185-.985-10.662-4.983-11.589-10.43a1.545,1.545,0,0,1,1.506-1.8H103.7a1.725,1.725,0,0,1,1.622,1.332c.7,3.245,2.55,5.736,8.344,5.736,4.23,0,7.244-2.376,7.244-5.91s-1.8-4.867-8-5.91C103.7,80.077,99.354,77.3,99.354,70.051c0-5.563,4.172-9.851,10.72-10.779v-5.1a1.62,1.62,0,0,1,1.623-1.622h3.245a1.619,1.619,0,0,1,1.622,1.622v5.215c5.273.927,8.634,3.941,9.735,8.924a1.531,1.531,0,0,1-1.506,1.855h-3.477a1.669,1.669,0,0,1-1.564-1.217c-.928-3.187-3.187-4.52-7.128-4.52-4.346,0-6.605,2.086-6.605,5.041,0,3.129,1.274,4.694,7.938,5.621,9.04,1.217,13.677,3.825,13.677,11.474,0,5.852-4.346,10.547-11.068,11.648v5.215Zm8.247,13.774a1.556,1.556,0,0,1-2.143-1.564v-3.072a2.254,2.254,0,0,1,1.448-2.086,32.765,32.765,0,0,0-.058-61.6A2.442,2.442,0,0,1,122.61,46.8V43.726a1.551,1.551,0,0,1,2.143-1.564,39.424,39.424,0,0,1,.058,75.041Z" transform="translate(254.34 -187.3)" fill="#fff"/>
      </g>
    </g>
  </g>
</svg>
