<?xml version="1.0" encoding="utf-8"?>
<!-- Generator: Adobe Illustrator 25.3.1, SVG Export Plug-In . SVG Version: 6.00 Build 0)  -->
<svg version="1.1" id="레이어_1" xmlns="http://www.w3.org/2000/svg" xmlns:xlink="http://www.w3.org/1999/xlink" x="0px"
	 y="0px" viewBox="0 0 240 240" style="enable-background:new 0 0 240 240;" xml:space="preserve">
<style type="text/css">
	.st0{fill:#3272B8;}
	.st1{fill:#FFFFFF;}
	.st2{fill:#EBEEF0;}
	.st3{fill:#343434;}
	.st4{fill:#8B8B8B;}
	.st5{fill:#3C3C3B;}
	.st6{fill:#131313;}
	.st7{fill:#393939;}
</style>
<g>
	<g>
		<path class="st0" d="M82.15,122.21c19.4,0,35-15.6,35-35s-15.6-35-35-35s-35,15.6-35,35S62.75,122.21,82.15,122.21z"/>
		<path class="st1" d="M91.77,92.75c0-5.1-3.06-6.85-9.19-7.58c-4.38-0.58-5.25-1.75-5.25-3.79c0-2.04,1.46-3.35,4.38-3.35
			c2.62,0,4.08,0.88,4.81,3.06c0.15,0.44,0.58,0.73,1.02,0.73h2.33c0.58,0,1.02-0.44,1.02-1.02v-0.15
			c-0.58-3.21-3.21-5.69-6.56-5.98v-3.5c0-0.58-0.44-1.02-1.17-1.17h-2.19c-0.58,0-1.02,0.44-1.17,1.17v3.35
			c-4.38,0.58-7.15,3.5-7.15,7.15c0,4.81,2.92,6.71,9.04,7.44c4.08,0.73,5.4,1.6,5.4,3.94s-2.04,3.94-4.81,3.94
			c-3.79,0-5.1-1.6-5.54-3.79c-0.15-0.58-0.58-0.88-1.02-0.88h-2.48c-0.58,0-1.02,0.44-1.02,1.02v0.15c0.58,3.65,2.92,6.27,7.73,7
			v3.5c0,0.58,0.44,1.02,1.17,1.17h2.19c0.58,0,1.02-0.44,1.17-1.17v-3.5C88.85,99.75,91.77,96.69,91.77,92.75L91.77,92.75z"/>
		<path class="st1" d="M74.71,108.07c-11.37-4.08-17.21-16.77-12.98-28c2.19-6.12,7-10.79,12.98-12.98
			c0.58-0.29,0.88-0.73,0.88-1.46v-2.04c0-0.58-0.29-1.02-0.88-1.17c-0.15,0-0.44,0-0.58,0.15c-13.85,4.38-21.44,19.1-17.06,32.96
			c2.62,8.17,8.9,14.44,17.06,17.06c0.58,0.29,1.17,0,1.31-0.58c0.15-0.15,0.15-0.29,0.15-0.58v-2.04
			C75.58,108.94,75.15,108.36,74.71,108.07z M90.17,62.57c-0.58-0.29-1.17,0-1.31,0.58c-0.15,0.15-0.15,0.29-0.15,0.58v2.04
			c0,0.58,0.44,1.17,0.88,1.46c11.38,4.08,17.21,16.77,12.98,28c-2.19,6.12-7,10.79-12.98,12.98c-0.58,0.29-0.88,0.73-0.88,1.46
			v2.04c0,0.58,0.29,1.02,0.88,1.17c0.15,0,0.44,0,0.58-0.15c13.85-4.38,21.44-19.1,17.06-32.96
			C104.6,71.46,98.19,65.19,90.17,62.57L90.17,62.57z"/>
	</g>
	<g id="그룹_891_1_" transform="translate(-1279.414 260.586)">
		<circle id="타원_17-2_2_" class="st2" cx="1419.06" cy="-125.87" r="52.5"/>
		<g id="Ethereum-Logo.wine-2_2_" transform="translate(1471.265 -549.518)">
			<path id="패스_504-2_2_" class="st3" d="M-53.07,440.72l0.62,0.62l28.48-16.84l-28.48-47.26l-0.62,2.11V440.72z"/>
			<path id="패스_505-2_2_" class="st4" d="M-52.45,441.34v-64.1l-28.48,47.26L-52.45,441.34z"/>
			<path id="패스_506-2_2_" class="st5" d="M-52.8,469.02l0.35,1.02l28.5-40.14l-28.5,16.83l-0.35,0.43L-52.8,469.02z"/>
			<path id="패스_507-2_2_" class="st4" d="M-80.93,429.91l28.48,40.14v-23.31L-80.93,429.91z"/>
			<path id="패스_508-2_2_" class="st6" d="M-52.45,411.56v29.78l28.48-16.84L-52.45,411.56z"/>
			<path id="패스_509-2_2_" class="st7" d="M-52.45,411.56l-28.48,12.95l28.48,16.84V411.56z"/>
		</g>
	</g>
</g>
</svg>
