<svg xmlns="http://www.w3.org/2000/svg" width="145" height="140" viewBox="0 0 145 140">
  <g id="그룹_906" data-name="그룹 906" transform="translate(-2203 -955)">
    <path id="패스_510" data-name="패스 510" d="M87.167,125.722a35,35,0,1,0-35-35A34.916,34.916,0,0,0,87.167,125.722Z" transform="translate(2150.833 899.278)" fill="#3272b8"/>
    <path id="패스_511" data-name="패스 511" d="M96.792,96.264c0-5.1-3.063-6.854-9.188-7.583-4.375-.584-5.25-1.75-5.25-3.792s1.459-3.354,4.375-3.354c2.625,0,4.084.875,4.813,3.062a1.1,1.1,0,0,0,1.021.729H94.9a1,1,0,0,0,1.021-1.02V84.16a7.286,7.286,0,0,0-6.563-5.979v-3.5c0-.584-.437-1.021-1.166-1.167H86c-.583,0-1.021.437-1.167,1.167v3.354c-4.375.583-7.145,3.5-7.145,7.146,0,4.812,2.916,6.708,9.041,7.437,4.084.729,5.4,1.6,5.4,3.938s-2.042,3.937-4.812,3.937c-3.792,0-5.105-1.6-5.542-3.792a1.065,1.065,0,0,0-1.021-.875H78.271a1,1,0,0,0-1.021,1.021v.146c.583,3.646,2.917,6.271,7.729,7v3.5c0,.583.438,1.021,1.167,1.167h2.187c.584,0,1.021-.438,1.167-1.167v-3.5c4.375-.729,7.292-3.792,7.292-7.729Z" transform="translate(2150.833 899.278)" fill="#fff"/>
    <path id="패스_512" data-name="패스 512" d="M79.729,111.576a21.823,21.823,0,0,1,0-40.979,1.462,1.462,0,0,0,.875-1.458V67.1a1.107,1.107,0,0,0-.875-1.166.88.88,0,0,0-.583.145,26.243,26.243,0,0,0,0,50.021.886.886,0,0,0,1.312-.583c.146-.146.146-.292.146-.583v-2.042A1.941,1.941,0,0,0,79.729,111.576Zm15.459-45.5a.887.887,0,0,0-1.313.584c-.146.146-.146.291-.146.583v2.042a1.936,1.936,0,0,0,.875,1.458,21.823,21.823,0,0,1,0,40.979,1.465,1.465,0,0,0-.875,1.459v2.041a1.109,1.109,0,0,0,.875,1.167.878.878,0,0,0,.584-.146,26.356,26.356,0,0,0,0-50.167Z" transform="translate(2150.833 899.278)" fill="#fff"/>
    <circle id="타원_17-2" data-name="타원 17-2" cx="52.5" cy="52.5" r="52.5" transform="translate(2243 990)" fill="#ebeef0"/>
    <g id="Ethereum-Logo.wine-2" transform="translate(2150.833 904.278)">
      <path id="패스_504-2" data-name="패스 504-2" d="M143.8,155.3l.622.621,28.482-16.836L144.425,91.824l-.622,2.115Z" fill="#343434"/>
      <path id="패스_505-2" data-name="패스 505-2" d="M144.425,155.919v-64.1l-28.482,47.259Z" fill="#8b8b8b"/>
      <path id="패스_506-2" data-name="패스 506-2" d="M144.074,183.6l.351,1.025,28.5-40.136-28.5,16.827-.351.428Z" fill="#3c3c3b"/>
      <path id="패스_507-2" data-name="패스 507-2" d="M115.943,144.485l28.482,40.137V161.307Z" fill="#8b8b8b"/>
      <path id="패스_508-2" data-name="패스 508-2" d="M144.425,126.138v29.781l28.482-16.836Z" fill="#131313"/>
      <path id="패스_509-2" data-name="패스 509-2" d="M144.425,126.138l-28.482,12.945,28.482,16.836Z" fill="#393939"/>
    </g>
  </g>
</svg>
