<svg xmlns="http://www.w3.org/2000/svg" xmlns:xlink="http://www.w3.org/1999/xlink" width="145" height="140" viewBox="0 0 145 140">
  <defs>
    <linearGradient id="linear-gradient" y1="0.5" x2="1" y2="0.5" gradientUnits="objectBoundingBox">
      <stop offset="0.257" stop-color="#fff"/>
      <stop offset="1" stop-color="#e6e6e6"/>
    </linearGradient>
    <linearGradient id="linear-gradient-2" x2="1.02" y2="1.01" gradientUnits="objectBoundingBox">
      <stop offset="0" stop-color="#ec79ff"/>
      <stop offset="1" stop-color="#6b99ff"/>
    </linearGradient>
  </defs>
  <g id="그룹_1004" data-name="그룹 1004" transform="translate(-1381 -53)">
    <g id="그룹_994" data-name="그룹 994" transform="translate(1381 53)">
      <circle id="타원_13" data-name="타원 13" cx="35" cy="35" r="35" fill="#00ab55"/>
      <g id="그룹_673" data-name="그룹 673" transform="translate(6.645 16.068)">
        <path id="패스_334" data-name="패스 334" d="M197,292.544a7.093,7.093,0,0,0-12.986,0l-9.51,21.1A5.894,5.894,0,0,0,176.509,321c2.312,1.391,5.163.354,6.367-2.318l3.556-7.889a4.451,4.451,0,0,1,8.149,0l3.668,8.138a4.451,4.451,0,0,0,8.149,0l3.669-8.139a4.451,4.451,0,0,1,8.149,0l3.556,7.889c1.2,2.672,4.055,3.71,6.367,2.318a5.894,5.894,0,0,0,2.006-7.358l-9.511-21.1a7.093,7.093,0,0,0-12.986,0l-4.087,9.067a1.351,1.351,0,0,1-2.474,0Z" transform="translate(-173.968 -288.305)" fill="#d3d3d3"/>
        <path id="패스_335" data-name="패스 335" d="M249.907,292.731l-.01-.021c-.058-.128-.119-.252-.183-.375l-.048-.092q-.1-.183-.2-.358l-.05-.08c-.069-.11-.139-.217-.212-.321l-.026-.039c-.079-.111-.161-.219-.245-.324l-.06-.075q-.125-.153-.257-.3l-.054-.057q-.125-.133-.255-.259l-.039-.038c-.095-.09-.192-.175-.291-.259l-.068-.057c-.1-.082-.2-.161-.3-.236l-.014-.011-.045-.031q-.11-.079-.222-.153l-.051-.034-.038-.024c-.091-.058-.183-.115-.276-.168l-.013-.007c-.044-.025-.088-.047-.132-.071-.066-.036-.133-.073-.2-.107-.049-.024-.1-.047-.147-.07s-.128-.061-.193-.089-.1-.043-.156-.064-.127-.052-.191-.076-.108-.038-.162-.057-.127-.044-.191-.064-.111-.033-.166-.049-.127-.036-.192-.053l-.169-.041c-.064-.015-.128-.029-.193-.042l-.172-.032-.194-.032-.172-.024q-.1-.012-.2-.021l-.173-.015c-.066,0-.131-.008-.2-.011l-.172-.006c-.066,0-.133,0-.2,0l-.171,0c-.068,0-.135.006-.2.011s-.111.006-.167.011-.138.014-.208.022c-.053.006-.107.011-.16.018-.073.01-.146.023-.219.035-.049.008-.1.015-.147.024-.087.017-.174.036-.261.056l-.1.022q-.179.044-.356.1l-.12.039c-.078.025-.156.05-.234.078-.049.018-.1.037-.144.056-.068.026-.137.052-.2.08-.05.021-.1.045-.15.067s-.129.057-.192.088-.1.051-.151.077-.123.063-.184.1-.1.057-.15.087-.118.07-.177.106-.1.064-.147.1-.114.076-.17.116-.1.07-.144.105-.11.083-.164.126-.093.075-.139.114-.106.09-.158.137-.09.081-.134.122-.1.1-.152.148-.086.086-.128.13-.1.106-.146.16-.081.091-.121.137-.094.115-.14.173-.076.094-.112.143-.091.125-.135.188-.07.1-.1.147c-.045.068-.089.138-.132.208-.03.049-.061.1-.091.146-.047.079-.091.161-.135.243-.024.044-.049.086-.072.131q-.1.184-.182.377l-.007.015L232.9,301.8h0a1.478,1.478,0,0,1-.093.173l-.014.023a1.378,1.378,0,0,1-.107.143l-.021.025a1.314,1.314,0,0,1-.121.119l-.023.019a1.333,1.333,0,0,1-.137.1l-.015.009a1.293,1.293,0,0,1-.145.077l-.015.007a1.327,1.327,0,0,1-.155.056l-.028.008a1.327,1.327,0,0,1-.156.032l-.031,0a1.344,1.344,0,0,1-.16.011h-.025a1.392,1.392,0,0,1-.168-.012l-.013,0a1.354,1.354,0,0,1-.157-.033c-.022-.006-.043-.014-.064-.021s-.068-.022-.1-.036-.047-.022-.071-.033-.059-.029-.088-.046-.047-.029-.07-.045-.053-.037-.078-.057-.045-.036-.067-.056-.047-.045-.069-.069-.042-.043-.061-.066-.042-.054-.062-.082-.036-.048-.052-.074-.04-.073-.06-.111c-.011-.021-.023-.041-.033-.063l-4.072-9.067c-.057-.128-.118-.252-.181-.375l-.022-.041c-.055-.1-.111-.208-.169-.308-.017-.029-.034-.056-.051-.084-.05-.084-.1-.168-.155-.249-.021-.033-.044-.065-.066-.1-.051-.075-.1-.148-.154-.22l-.075-.1q-.078-.1-.159-.2l-.081-.1q-.082-.1-.166-.189l-.084-.091q-.087-.092-.176-.18l-.084-.083c-.063-.06-.127-.118-.191-.175l-.079-.07c-.071-.061-.144-.12-.217-.177l-.063-.051q-.136-.1-.276-.2l-.013-.009a6.884,6.884,0,0,0-.617-.38l-.052-.027c-.086-.046-.173-.091-.261-.133l-.087-.04c-.077-.036-.154-.071-.232-.1l-.1-.042c-.074-.03-.148-.059-.222-.086l-.111-.039q-.109-.038-.22-.072l-.116-.035q-.11-.032-.22-.06l-.117-.029c-.075-.018-.15-.034-.225-.049l-.114-.023c-.079-.015-.157-.027-.236-.039l-.105-.016c-.086-.012-.173-.021-.259-.03l-.084-.009q-.165-.015-.331-.021h-.013q-.178-.007-.355-.005H219.8q-.162,0-.324.012l-.094.007c-.083.006-.166.013-.249.021l-.118.015c-.075.009-.149.019-.224.031l-.128.022c-.071.012-.141.025-.212.04l-.133.029q-.1.023-.2.049l-.135.036c-.067.019-.133.038-.2.059l-.134.042c-.066.022-.132.046-.2.07l-.13.048-.052.019c-.08.032-.159.065-.238.1l-.02.01c-.092.041-.183.085-.274.13l-.073.037c-.1.05-.193.1-.287.155a7.112,7.112,0,0,0-2.95,3.307l-5.093,11.342h0a7.052,7.052,0,0,1,12.717.45l2.867,6.385.008.018h0c.009.019.019.037.028.056l3.654,8.138.01.02q.068.15.144.292c.019.036.041.07.061.106.036.063.072.127.11.187.025.039.052.076.077.115.036.054.072.108.11.159s.059.075.088.112.075.1.115.142.064.072.1.107.079.086.12.127.069.067.1.1.083.078.125.115.073.062.11.092.087.07.131.1.077.057.116.084.09.062.136.092l.12.075c.047.028.094.055.142.081s.082.045.123.066.1.048.147.071.084.039.126.057.1.041.152.061.084.033.127.048.106.034.159.051.084.027.126.038.111.028.167.041c.041.009.081.02.122.028.061.012.122.022.184.032.036.006.073.013.109.018.087.012.174.02.261.027.113.009.226.014.339.014h.011c.03,0,.059,0,.089,0,.076,0,.152,0,.228-.009.036,0,.071-.007.107-.011.07-.007.139-.013.208-.024.038-.006.076-.013.114-.02.067-.011.133-.023.2-.037l.115-.028c.065-.016.129-.032.194-.051l.115-.036c.063-.021.127-.042.189-.065l.112-.045c.062-.025.124-.052.185-.08l.108-.052q.092-.045.181-.1l.1-.059q.09-.053.177-.111l.1-.065c.059-.041.116-.084.174-.128l.089-.07c.058-.047.114-.1.17-.148.027-.024.054-.048.08-.073.057-.055.112-.112.167-.17.023-.024.046-.048.068-.073.057-.064.112-.131.166-.2.018-.022.036-.044.054-.066.059-.078.116-.159.172-.241l.032-.046a4.8,4.8,0,0,0,.356-.653l3.654-8.138c.009-.019.019-.037.028-.056l.008-.019h0l2.867-6.384a7.052,7.052,0,0,1,12.717-.45h0Z" transform="translate(-203.309 -288.465)" fill="url(#linear-gradient)"/>
      </g>
    </g>
    <g id="Page-1" transform="translate(1421 87)">
      <g id="crypto">
        <g id="kdai_icon">
          <rect id="Rectangle" width="105" height="106" rx="52.5" fill="url(#linear-gradient-2)"/>
          <path id="Fill-1" d="M64.047,44.513a17.956,17.956,0,0,1-.23,2.736H31.355V41.84H63.826a17.955,17.955,0,0,1,.221,2.673Zm-17.5,17.318H31.355V52.894H61.7a17.365,17.365,0,0,1-15.15,8.937ZM31.12,27.023H46.408A17.515,17.515,0,0,1,61.7,35.96H31.12ZM72.749,35.93H68.188A23.306,23.306,0,0,0,46.5,21.143H25.4V35.93H17.714v5.857H25.4v5.341H17.714v5.859H25.4V67.711H46.5A23.312,23.312,0,0,0,68.167,52.987h4.582V47.129H69.644a21.543,21.543,0,0,0,.009-5.341h3.1Z" transform="translate(7.414 8.219)" fill="#fff"/>
        </g>
      </g>
    </g>
  </g>
</svg>
