<svg xmlns="http://www.w3.org/2000/svg" xmlns:xlink="http://www.w3.org/1999/xlink" width="145" height="140" viewBox="0 0 145 140">
  <defs>
    <linearGradient id="linear-gradient" y1="0.5" x2="1" y2="0.5" gradientUnits="objectBoundingBox">
      <stop offset="0.257" stop-color="#fff"/>
      <stop offset="1" stop-color="#e6e6e6"/>
    </linearGradient>
  </defs>
  <g id="그룹_879" data-name="그룹 879" transform="translate(-725 279)">
    <g id="그룹_876" data-name="그룹 876" transform="translate(410 -118)">
      <path id="패스_491" data-name="패스 491" d="M98,99A35,35,0,1,0,63,64,35,35,0,0,0,98,99Z" transform="translate(252 -190)" fill="#2775ca"/>
      <path id="패스_492" data-name="패스 492" d="M93.974,91.056A1.047,1.047,0,0,1,92.545,92.1a26.248,26.248,0,0,1,0-49.99,1.037,1.037,0,0,1,1.429,1.043V45.2a1.609,1.609,0,0,1-.966,1.391,21.836,21.836,0,0,0,.039,41.026,1.628,1.628,0,0,1,.966,1.391v2.047h-.039Zm8.506-8.087A1.079,1.079,0,0,1,101.4,84.05H99.235a1.08,1.08,0,0,1-1.082-1.081V79.492c-4.79-.657-7.108-3.322-7.726-6.953a1.03,1.03,0,0,1,1-1.2H93.9a1.15,1.15,0,0,1,1.081.888c.464,2.164,1.7,3.824,5.563,3.824,2.82,0,4.829-1.584,4.829-3.94s-1.2-3.245-5.331-3.94c-6.142-.772-9.04-2.627-9.04-7.456,0-3.708,2.781-6.567,7.146-7.186v-3.4a1.08,1.08,0,0,1,1.082-1.081H101.4a1.079,1.079,0,0,1,1.081,1.081v3.477c3.515.618,5.756,2.627,6.49,5.949a1.021,1.021,0,0,1-1,1.237h-2.318a1.113,1.113,0,0,1-1.043-.811c-.619-2.125-2.125-3.013-4.752-3.013-2.9,0-4.4,1.39-4.4,3.361,0,2.086.85,3.129,5.292,3.747,6.026.811,9.118,2.55,9.118,7.649,0,3.9-2.9,7.031-7.379,7.765v3.477Zm5.5,9.183a1.037,1.037,0,0,1-1.429-1.043V89.061a1.5,1.5,0,0,1,.966-1.39,21.843,21.843,0,0,0-.039-41.065,1.628,1.628,0,0,1-.966-1.39V43.168a1.034,1.034,0,0,1,1.429-1.043,26.282,26.282,0,0,1,.039,50.027Z" transform="translate(249.79 -192.55)" fill="#fff"/>
    </g>
    <g id="그룹_869" data-name="그룹 869" transform="translate(705)">
      <g id="그룹_858" data-name="그룹 858" transform="translate(59.545 -244.95)">
        <g id="그룹_851" data-name="그룹 851">
          <ellipse id="타원_13" data-name="타원 13" cx="52.5" cy="53" rx="52.5" ry="53" transform="translate(0.455 -0.05)" fill="#00ab55"/>
          <g id="그룹_673" data-name="그룹 673" transform="translate(10.167 24.711)">
            <path id="패스_334" data-name="패스 334" d="M208.537,294.557a10.722,10.722,0,0,0-19.492,0L174.77,325.678c-1.808,3.941-.459,8.8,3.011,10.852s7.749.522,9.557-3.419l5.337-11.636a6.728,6.728,0,0,1,12.231,0l5.505,12a6.728,6.728,0,0,0,12.231,0l5.506-12a6.728,6.728,0,0,1,12.231,0l5.338,11.637c1.808,3.941,6.087,5.471,9.557,3.419s4.818-6.911,3.011-10.852L244.01,294.556a10.722,10.722,0,0,0-19.492,0l-6.134,13.373a2.043,2.043,0,0,1-3.713,0Z" transform="translate(-173.968 -288.305)" fill="#d3d3d3"/>
            <path id="패스_335" data-name="패스 335" d="M270.968,294.745l-.016-.031c-.087-.189-.18-.372-.275-.552-.024-.045-.048-.091-.072-.136q-.148-.27-.307-.527c-.025-.04-.05-.079-.076-.119-.1-.162-.209-.32-.319-.473l-.039-.057c-.119-.164-.243-.323-.369-.478l-.091-.11q-.189-.225-.387-.438l-.081-.084q-.188-.2-.385-.382l-.059-.056c-.143-.132-.289-.259-.438-.381l-.1-.084c-.149-.12-.3-.237-.456-.348l-.022-.017c-.022-.016-.046-.03-.068-.046q-.165-.116-.334-.225l-.076-.051-.057-.035c-.137-.086-.275-.169-.416-.248l-.019-.01c-.066-.037-.133-.07-.2-.105-.1-.053-.2-.107-.3-.157-.073-.036-.148-.069-.222-.1-.1-.045-.193-.09-.29-.131-.078-.033-.157-.064-.235-.095-.1-.038-.191-.076-.288-.112-.081-.03-.162-.056-.244-.084s-.191-.064-.288-.094-.167-.049-.25-.073-.192-.053-.289-.078-.17-.041-.255-.06-.193-.043-.29-.062-.172-.033-.259-.048-.195-.032-.292-.047-.173-.024-.259-.035-.2-.022-.3-.031-.173-.016-.26-.022-.2-.011-.3-.016-.173-.007-.26-.009-.2,0-.3,0-.171,0-.257,0c-.1,0-.2.009-.3.015-.084,0-.168.009-.251.016-.1.009-.209.021-.313.032-.08.009-.161.016-.241.027-.11.015-.22.033-.329.052-.074.012-.148.022-.222.036-.132.025-.263.054-.393.083-.051.011-.1.02-.153.033q-.27.065-.536.143c-.06.018-.12.039-.18.058-.118.037-.236.074-.352.114-.073.026-.145.055-.217.082-.1.039-.206.077-.307.118-.076.031-.15.066-.226.1-.1.042-.194.084-.289.13-.076.036-.152.075-.227.114-.093.047-.185.093-.276.143-.076.041-.151.085-.226.128s-.178.1-.266.157-.148.094-.222.142-.172.113-.256.171-.145.1-.217.155-.165.123-.247.186-.14.111-.209.168-.159.133-.238.2-.135.119-.2.18-.153.144-.229.218-.129.127-.193.192-.147.156-.22.236-.122.134-.182.2-.142.169-.212.255c-.057.07-.114.139-.169.211-.07.091-.137.184-.2.278-.052.072-.1.143-.155.217-.068.1-.134.2-.2.307-.046.072-.092.142-.137.215-.07.117-.137.237-.2.358-.036.065-.074.127-.108.193q-.143.271-.275.556l-.011.021-6.134,13.374h0a2.175,2.175,0,0,1-.141.256l-.021.033a2.028,2.028,0,0,1-.161.211l-.032.036a1.96,1.96,0,0,1-.182.176l-.035.028a2.006,2.006,0,0,1-.207.148l-.022.013a1.96,1.96,0,0,1-.219.113l-.023.011a2.019,2.019,0,0,1-.234.082l-.042.012a2.033,2.033,0,0,1-.235.048l-.047.006a2.073,2.073,0,0,1-.24.016h-.038a2.123,2.123,0,0,1-.254-.017l-.019,0a2.072,2.072,0,0,1-.237-.048c-.033-.009-.064-.021-.1-.031-.052-.016-.1-.033-.153-.054s-.071-.032-.106-.049-.089-.043-.132-.068-.071-.043-.106-.066-.079-.055-.118-.084-.068-.053-.1-.082-.071-.066-.1-.1-.063-.063-.092-.1-.063-.08-.093-.121-.054-.071-.079-.11-.061-.108-.09-.163c-.016-.032-.035-.06-.05-.093l-6.134-13.373c-.086-.189-.178-.372-.272-.552-.011-.021-.022-.04-.033-.06-.082-.154-.167-.306-.255-.455-.025-.042-.052-.083-.077-.125-.076-.124-.153-.247-.233-.367-.032-.049-.066-.1-.1-.143-.076-.11-.153-.219-.233-.325-.037-.05-.075-.1-.113-.147q-.118-.152-.239-.3l-.122-.143q-.123-.142-.25-.279l-.127-.134q-.131-.135-.265-.265l-.127-.122c-.095-.088-.191-.174-.288-.258l-.119-.1c-.107-.09-.216-.177-.326-.262-.032-.025-.063-.051-.1-.075q-.2-.154-.415-.3l-.019-.014a10.408,10.408,0,0,0-.93-.561l-.078-.04c-.13-.068-.26-.134-.393-.2l-.131-.059c-.116-.053-.232-.1-.35-.153l-.155-.062c-.111-.044-.223-.086-.335-.126l-.168-.058q-.164-.056-.331-.106l-.175-.051q-.165-.047-.332-.089l-.177-.043c-.113-.026-.226-.05-.34-.073l-.172-.034c-.118-.022-.237-.04-.356-.058l-.159-.024c-.13-.017-.26-.031-.391-.044l-.126-.013q-.249-.021-.5-.031h-.019q-.268-.01-.535-.008h-.029q-.244,0-.488.017l-.141.011c-.125.009-.25.019-.375.031l-.178.022c-.113.014-.225.028-.337.045-.064.01-.129.021-.193.032-.106.018-.213.037-.319.059l-.2.043q-.154.034-.307.072l-.2.053c-.1.027-.2.057-.3.087l-.2.063c-.1.033-.2.067-.3.1-.065.023-.131.046-.2.071l-.079.028q-.18.07-.358.147l-.031.014c-.139.061-.276.125-.413.191l-.109.054c-.146.073-.29.148-.433.229A10.57,10.57,0,0,0,216,294.745l-7.673,16.729v0a10.723,10.723,0,0,1,19.16.664l4.319,9.417.012.026v0c.013.028.029.054.042.083l5.505,12,.015.029q.1.222.217.431c.029.053.062.1.092.156.054.093.108.187.166.276.037.058.078.112.117.169.054.079.109.159.166.234.043.057.088.111.133.166.057.071.114.141.173.209s.1.106.146.158.119.127.181.188.1.1.156.148.125.115.189.169.11.092.166.136.131.1.2.152.116.083.174.124.136.092.206.136.12.075.181.111.142.081.214.12.123.066.186.1.147.071.222.1.126.057.19.084.153.061.23.089.127.048.191.07c.079.027.159.051.239.075.064.019.126.039.19.056.084.022.168.041.252.06.061.014.122.029.184.042.092.018.184.032.277.047.055.009.109.019.164.027.131.017.262.029.393.039.17.013.34.021.511.021h.016c.045,0,.089,0,.134,0,.114,0,.229-.005.343-.014.054,0,.107-.011.161-.016.1-.01.209-.02.314-.035.057-.008.114-.019.171-.029.1-.017.2-.034.3-.055.058-.013.116-.028.174-.042.1-.023.2-.048.292-.075.058-.017.115-.036.173-.054.1-.03.191-.062.285-.1.057-.021.112-.043.169-.066.094-.037.187-.076.279-.118.055-.025.109-.051.163-.077q.138-.067.273-.14.078-.042.155-.087.135-.078.267-.164c.049-.032.1-.063.146-.1.089-.061.175-.124.261-.189.045-.034.09-.068.134-.1.087-.07.172-.143.256-.218.04-.036.081-.071.12-.108.086-.081.169-.165.252-.251.034-.036.07-.07.1-.107.086-.094.169-.193.251-.293.027-.033.055-.064.081-.1.09-.114.175-.234.259-.356.016-.023.032-.044.048-.067a7.032,7.032,0,0,0,.537-.963l5.505-12c.013-.029.028-.055.042-.083l.012-.027h0l4.319-9.416a10.723,10.723,0,0,1,19.16-.664h0Z" transform="translate(-200.925 -288.452)" fill="url(#linear-gradient)"/>
          </g>
        </g>
      </g>
    </g>
  </g>
</svg>
