<svg xmlns="http://www.w3.org/2000/svg" width="150" height="140" viewBox="0 0 150 140">
  <g id="그룹_952" data-name="그룹 952" transform="translate(-1546 -3171)">
    <g id="그룹_950" data-name="그룹 950" transform="translate(-40 173)">
      <circle id="타원_17-3" data-name="타원 17-3" cx="35" cy="35" r="35" transform="translate(1586 2998)" fill="#eff2f4"/>
      <path id="패스_504-3" data-name="패스 504-3" d="M-296.4,917.689l.415.414L-277,906.879l-18.988-31.506-.415,1.41Z" transform="translate(1916.828 2126.695)" fill="#2e2b29"/>
      <path id="패스_505-3" data-name="패스 505-3" d="M-295.988,918.1v-42.73l-18.988,31.506Z" transform="translate(1916.828 2126.695)" fill="#837f7d"/>
      <path id="패스_506-3" data-name="패스 506-3" d="M-296.222,936.555l.234.683,19-26.757-19,11.218-.234.285Z" transform="translate(1916.828 2126.695)" fill="#35312e"/>
      <path id="패스_507-3" data-name="패스 507-3" d="M-314.976,910.48l18.988,26.758V921.7Z" transform="translate(1916.828 2126.695)" fill="#837f7d"/>
      <path id="패스_508-3" data-name="패스 508-3" d="M-295.988,898.249V918.1L-277,906.879Z" transform="translate(1916.828 2126.695)" fill="#181614"/>
      <path id="패스_509-3" data-name="패스 509-3" d="M-295.988,898.249l-18.988,8.63,18.988,11.224Z" transform="translate(1916.828 2126.695)" fill="#322f2d"/>
    </g>
    <g id="그룹_951" data-name="그룹 951" transform="translate(-20)">
      <path id="패스_491" data-name="패스 491" d="M1169,2269a55,55,0,1,0-55-55A55,55,0,0,0,1169,2269Z" transform="translate(492 1042)" fill="#2775ca"/>
      <path id="패스_492" data-name="패스 492" d="M1159.2,2252.508a1.646,1.646,0,0,1-2.246,1.64,41.247,41.247,0,0,1,0-78.555,1.629,1.629,0,0,1,2.24,1.636v3.218a2.527,2.527,0,0,1-1.517,2.186,34.314,34.314,0,0,0,.061,64.471,2.556,2.556,0,0,1,1.517,2.186v3.216h-.061Zm13.366-12.708a1.7,1.7,0,0,1-1.693,1.7h-3.4a1.7,1.7,0,0,1-1.7-1.694v-5.468c-7.527-1.031-11.17-5.22-12.141-10.926a1.62,1.62,0,0,1,1.329-1.864,1.589,1.589,0,0,1,.249-.022h3.883a1.808,1.808,0,0,1,1.7,1.4c.733,3.4,2.671,6.01,8.741,6.01,4.432,0,7.589-2.49,7.589-6.192s-1.886-5.1-8.381-6.191c-9.648-1.209-14.2-4.118-14.2-11.713,0-5.828,4.37-10.32,11.23-11.292V2188.2a1.7,1.7,0,0,1,1.7-1.7h3.4a1.7,1.7,0,0,1,1.7,1.693v5.47c5.524.971,9.045,4.128,10.2,9.349a1.605,1.605,0,0,1-1.228,1.907,1.641,1.641,0,0,1-.35.036h-3.643a1.749,1.749,0,0,1-1.638-1.275c-.972-3.339-3.339-4.735-7.468-4.735-4.552,0-6.919,2.185-6.919,5.281,0,3.278,1.335,4.917,8.316,5.888,9.47,1.275,14.328,4.008,14.328,12.021,0,6.13-4.553,11.049-11.595,12.2v5.464Zm8.64,14.43a1.63,1.63,0,0,1-2.245-1.639v-3.218a2.36,2.36,0,0,1,1.517-2.185,34.326,34.326,0,0,0-.061-64.534,2.558,2.558,0,0,1-1.517-2.178v-3.22a1.626,1.626,0,0,1,2.245-1.639,41.3,41.3,0,0,1,.061,78.615Z" transform="translate(491.71 1042)" fill="#fff"/>
    </g>
  </g>
</svg>
