<?xml version="1.0" encoding="utf-8"?>
<!-- Generator: Adobe Illustrator 25.3.1, SVG Export Plug-In . SVG Version: 6.00 Build 0)  -->
<svg version="1.1" id="레이어_1" xmlns="http://www.w3.org/2000/svg" xmlns:xlink="http://www.w3.org/1999/xlink" x="0px"
	 y="0px" viewBox="0 0 240 240" style="enable-background:new 0 0 240 240;" xml:space="preserve">
<style type="text/css">
	.st0{fill-rule:evenodd;clip-rule:evenodd;fill:#239F7B;}
	.st1{fill-rule:evenodd;clip-rule:evenodd;fill:#FFFFFF;}
	.st2{fill:#3272B8;}
	.st3{fill:#FFFFFF;}
</style>
<circle class="st0" cx="81.65" cy="86.71" r="35"/>
<path class="st1" d="M85.85,89.74L85.85,89.74c-0.24,0.01-1.48,0.09-4.25,0.09c-2.21,0-3.76-0.07-4.31-0.09v0.01
	c-8.5-0.37-14.85-1.86-14.85-3.63c0-1.77,6.35-3.25,14.85-3.63v5.78c0.56,0.04,2.15,0.13,4.35,0.13c2.64,0,3.96-0.11,4.21-0.13
	v-5.78c8.49,0.38,14.82,1.86,14.82,3.63C100.67,87.88,94.34,89.36,85.85,89.74 M85.85,81.88v-5.18h11.84v-7.89H65.45v7.89h11.84
	v5.17c-9.62,0.44-16.86,2.35-16.86,4.63s7.24,4.19,16.86,4.63v16.59h8.56V91.14c9.61-0.44,16.83-2.35,16.83-4.63
	S95.46,82.33,85.85,81.88"/>
<path class="st2" d="M139.65,187.71c29.37,0,53-23.63,53-53s-23.63-53-53-53s-53,23.63-53,53S110.28,187.71,139.65,187.71z"/>
<path class="st3" d="M154.22,143.1c0-7.73-4.64-10.38-13.91-11.48c-6.62-0.88-7.95-2.65-7.95-5.74c0-3.09,2.21-5.08,6.62-5.08
	c3.98,0,6.18,1.32,7.29,4.64c0.22,0.66,0.88,1.1,1.55,1.1h3.53c0.88,0,1.55-0.66,1.55-1.55v-0.22c-0.88-4.86-4.86-8.61-9.94-9.05
	v-5.3c0-0.88-0.66-1.55-1.77-1.77h-3.31c-0.88,0-1.55,0.66-1.77,1.77v5.08c-6.62,0.88-10.82,5.3-10.82,10.82
	c0,7.29,4.42,10.16,13.69,11.26c6.18,1.1,8.17,2.43,8.17,5.96c0,3.53-3.09,5.96-7.29,5.96c-5.74,0-7.73-2.43-8.39-5.74
	c-0.22-0.88-0.88-1.32-1.55-1.32h-3.75c-0.88,0-1.55,0.66-1.55,1.55v0.22c0.88,5.52,4.42,9.5,11.7,10.6v5.3
	c0,0.88,0.66,1.55,1.77,1.77h3.31c0.88,0,1.55-0.66,1.77-1.77v-5.3C149.8,153.7,154.22,149.07,154.22,143.1L154.22,143.1z"/>
<path class="st3" d="M128.38,166.29c-17.22-6.18-26.06-25.4-19.65-42.4c3.31-9.28,10.6-16.34,19.65-19.65
	c0.88-0.44,1.33-1.1,1.33-2.21v-3.09c0-0.88-0.44-1.55-1.33-1.77c-0.22,0-0.66,0-0.88,0.22c-20.98,6.62-32.46,28.93-25.84,49.91
	c3.97,12.37,13.47,21.86,25.84,25.84c0.88,0.44,1.77,0,1.99-0.88c0.22-0.22,0.22-0.44,0.22-0.88v-3.09
	C129.71,167.62,129.05,166.73,128.38,166.29z M151.79,97.39c-0.88-0.44-1.77,0-1.99,0.88c-0.22,0.22-0.22,0.44-0.22,0.88v3.09
	c0,0.88,0.66,1.77,1.32,2.21c17.22,6.18,26.06,25.4,19.65,42.4c-3.31,9.28-10.6,16.34-19.65,19.65c-0.88,0.44-1.32,1.1-1.32,2.21
	v3.09c0,0.88,0.44,1.55,1.32,1.77c0.22,0,0.66,0,0.88-0.22c20.98-6.62,32.46-28.93,25.84-49.91
	C173.65,110.86,163.94,101.37,151.79,97.39L151.79,97.39z"/>
</svg>
