<svg xmlns="http://www.w3.org/2000/svg" width="146" height="141" viewBox="0 0 146 141">
  <g id="그룹_905" data-name="그룹 905" transform="translate(-3277 -793)">
    <circle id="타원_22" data-name="타원 22" cx="35" cy="35" r="35" transform="translate(3277 793)" fill="#2d9167"/>
    <path id="패스_513" data-name="패스 513" d="M641.538,2218.025v0c-.241.017-1.481.092-4.248.092-2.21,0-3.765-.066-4.312-.092v.006c-8.505-.374-14.853-1.855-14.853-3.626s6.348-3.251,14.853-3.632v5.784c.556.039,2.148.134,4.349.134,2.64,0,3.964-.11,4.211-.132v-5.781c8.487.378,14.82,1.859,14.82,3.627s-6.333,3.248-14.82,3.624m0-7.853V2205h11.843V2197.1H621.135V2205h11.843v5.173c-9.625.442-16.863,2.349-16.863,4.633s7.238,4.189,16.863,4.633v16.586h8.56v-16.59c9.609-.442,16.83-2.347,16.83-4.629s-7.221-4.187-16.83-4.631" transform="translate(2674.667 -1387)" fill="#fff" fill-rule="evenodd"/>
    <path id="패스_514" data-name="패스 514" d="M695.333,2316a53,53,0,1,0-53-53A52.873,52.873,0,0,0,695.333,2316Z" transform="translate(2674.667 -1382)" fill="#0a61ac"/>
    <path id="패스_515" data-name="패스 515" d="M709.908,2271.391c0-7.729-4.637-10.379-13.912-11.482-6.625-.884-7.95-2.65-7.95-5.743s2.208-5.079,6.625-5.079c3.975,0,6.183,1.325,7.287,4.638a1.662,1.662,0,0,0,1.546,1.1h3.533a1.509,1.509,0,0,0,1.546-1.545v-.221a11.031,11.031,0,0,0-9.937-9.054v-5.3c0-.884-.663-1.546-1.767-1.768h-3.312c-.884,0-1.546.663-1.767,1.768v5.079c-6.625.883-10.821,5.3-10.821,10.821,0,7.287,4.417,10.157,13.692,11.262,6.183,1.1,8.171,2.429,8.171,5.963s-3.092,5.962-7.288,5.962c-5.742,0-7.729-2.43-8.392-5.742a1.612,1.612,0,0,0-1.545-1.325h-3.755a1.509,1.509,0,0,0-1.545,1.546v.221c.883,5.52,4.416,9.495,11.7,10.6v5.3c0,.883.662,1.545,1.766,1.767H697.1c.883,0,1.546-.663,1.767-1.767v-5.3c6.625-1.1,11.041-5.742,11.041-11.7Z" transform="translate(2674.667 -1382)" fill="#fff"/>
    <path id="패스_516" data-name="패스 516" d="M684.071,2294.579a33.046,33.046,0,0,1,0-62.054,2.217,2.217,0,0,0,1.325-2.209v-3.091a1.678,1.678,0,0,0-1.325-1.766,1.333,1.333,0,0,0-.884.22,39.74,39.74,0,0,0,0,75.746,1.343,1.343,0,0,0,1.988-.884c.221-.22.221-.441.221-.882v-3.093A2.943,2.943,0,0,0,684.071,2294.579Zm23.408-68.9a1.342,1.342,0,0,0-1.987.884c-.221.221-.221.441-.221.883v3.092a2.928,2.928,0,0,0,1.325,2.208,33.046,33.046,0,0,1,0,62.054,2.216,2.216,0,0,0-1.325,2.209v3.091a1.677,1.677,0,0,0,1.325,1.766,1.331,1.331,0,0,0,.883-.22,39.909,39.909,0,0,0,0-75.967Z" transform="translate(2674.667 -1382)" fill="#fff"/>
  </g>
</svg>
