<svg xmlns="http://www.w3.org/2000/svg" width="149.345" height="142" viewBox="0 0 149.345 142">
  <g id="usdt-busd" transform="translate(-32.328 12)">
    <circle id="타원_16" data-name="타원 16" cx="35.5" cy="35.5" r="35.5" transform="translate(32.328 -12)" fill="#f0b90b"/>
    <path id="패스_501" data-name="패스 501" d="M65.312,24.4,80.435,9.28l6.03,6.03L71.342,30.433l-6.03-6.03Zm.011,18.072L89.491,18.307l6.03,6.03L71.353,48.505ZM98.53,27.363,74.362,51.53l6.03,6.03L104.56,33.392l-6.03-6.03ZM56.28,33.432l6.03-6.03,6.03,6.03-6.03,6.03Z" transform="translate(-12.592 -9.92)" fill="#fffdfa" fill-rule="evenodd"/>
    <path id="패스_502" data-name="패스 502" d="M135.25,135.5A53.25,53.25,0,1,0,82,82.25,53.251,53.251,0,0,0,135.25,135.5Z" transform="translate(-6.828 -5.5)" fill="#24a980"/>
    <path id="패스_503" data-name="패스 503" d="M138,82.683l-6.506.171c-3.425,0-5.736-.086-6.593-.171-12.927-.514-22.687-2.825-22.687-5.479,0-2.74,9.674-4.965,22.687-5.565v8.817c.857.086,3.254.171,6.678.171,4.024,0,6.079-.171,6.422-.171V71.639c13.013.6,22.687,2.825,22.687,5.565C160.688,79.858,151.014,82.169,138,82.683ZM138,70.7V62.821H156.15V50.75H106.838V62.821h18.149V70.7c-14.725.684-25.768,3.6-25.768,7.106s11.043,6.421,25.768,7.106V110.25h13.1V84.908c14.724-.684,25.768-3.6,25.768-7.106-.086-3.51-11.129-6.421-25.854-7.106Z" transform="translate(-2.968 -0.625)" fill="#fffdfa"/>
  </g>
</svg>
