<svg xmlns="http://www.w3.org/2000/svg" width="145" height="140" viewBox="0 0 145 140">
  <g id="그룹_878" data-name="그룹 878" transform="translate(-900 279)">
    <g id="그룹_870" data-name="그룹 870" transform="translate(880)">
      <g id="그룹_877" data-name="그룹 877" transform="translate(-295 -118)">
        <path id="패스_491" data-name="패스 491" d="M98,99A35,35,0,1,0,63,64,35,35,0,0,0,98,99Z" transform="translate(252 -190)" fill="#2775ca"/>
        <path id="패스_492" data-name="패스 492" d="M93.974,91.056A1.047,1.047,0,0,1,92.545,92.1a26.248,26.248,0,0,1,0-49.99,1.037,1.037,0,0,1,1.429,1.043V45.2a1.609,1.609,0,0,1-.966,1.391,21.836,21.836,0,0,0,.039,41.026,1.628,1.628,0,0,1,.966,1.391v2.047h-.039Zm8.506-8.087A1.079,1.079,0,0,1,101.4,84.05H99.235a1.08,1.08,0,0,1-1.082-1.081V79.492c-4.79-.657-7.108-3.322-7.726-6.953a1.03,1.03,0,0,1,1-1.2H93.9a1.15,1.15,0,0,1,1.081.888c.464,2.164,1.7,3.824,5.563,3.824,2.82,0,4.829-1.584,4.829-3.94s-1.2-3.245-5.331-3.94c-6.142-.772-9.04-2.627-9.04-7.456,0-3.708,2.781-6.567,7.146-7.186v-3.4a1.08,1.08,0,0,1,1.082-1.081H101.4a1.079,1.079,0,0,1,1.081,1.081v3.477c3.515.618,5.756,2.627,6.49,5.949a1.021,1.021,0,0,1-1,1.237h-2.318a1.113,1.113,0,0,1-1.043-.811c-.619-2.125-2.125-3.013-4.752-3.013-2.9,0-4.4,1.39-4.4,3.361,0,2.086.85,3.129,5.292,3.747,6.026.811,9.118,2.55,9.118,7.649,0,3.9-2.9,7.031-7.379,7.765v3.477Zm5.5,9.183a1.037,1.037,0,0,1-1.429-1.043V89.061a1.5,1.5,0,0,1,.966-1.39,21.843,21.843,0,0,0-.039-41.065,1.628,1.628,0,0,1-.966-1.39V43.168a1.034,1.034,0,0,1,1.429-1.043,26.282,26.282,0,0,1,.039,50.027Z" transform="translate(249.79 -192.55)" fill="#fff"/>
      </g>
      <g id="그룹_871" data-name="그룹 871" transform="translate(-268.581 112.5)">
        <path id="패스_475" data-name="패스 475" d="M134.5,134A52.5,52.5,0,0,0,187,81.5a53.084,53.084,0,0,0-2.256-15.273A52.506,52.506,0,1,0,134.5,134Z" transform="translate(246.581 -385.5)" fill="#24a980"/>
        <path id="패스_476" data-name="패스 476" d="M137.4,82.185l-6.4.169c-3.372,0-5.647-.084-6.49-.169-12.725-.506-22.333-2.781-22.333-5.394,0-2.7,9.523-4.888,22.333-5.478v8.68c.844.084,3.2.169,6.573.169,3.961,0,5.984-.169,6.322-.169v-8.68c12.81.59,22.333,2.781,22.333,5.478C159.729,79.4,150.205,81.678,137.4,82.185Zm0-11.8V62.633h17.866V50.75H106.719V62.633h17.866v7.753c-14.5.674-25.366,3.539-25.366,7s10.871,6.32,25.366,7v24.945h12.9V84.375c14.494-.674,25.366-3.539,25.366-7-.084-3.455-10.955-6.32-25.45-7Z" transform="translate(250.111 -380.949)" fill="#fffdfa"/>
      </g>
    </g>
  </g>
</svg>
