<svg xmlns="http://www.w3.org/2000/svg" width="145" height="140" viewBox="0 0 145 140">
  <g id="그룹_888" data-name="그룹 888" transform="translate(-176 293)">
    <g id="그룹_862" data-name="그룹 862">
      <g id="그룹_891" data-name="그룹 891" transform="translate(-1279.414 260.586)">
        <circle id="타원_17" data-name="타원 17" cx="35" cy="35" r="35" transform="translate(1455.414 -553.586)" fill="#eceff0"/>
        <g id="Ethereum-Logo.wine" transform="translate(1471.265 -549.518)">
          <path id="패스_504" data-name="패스 504" d="M125.166,42.316l.415.414,18.988-11.224L125.581,0l-.415,1.41Z" transform="translate(-106.593)" fill="#343434"/>
          <path id="패스_505" data-name="패스 505" d="M18.988,42.73V0L0,31.506Z" fill="#8c8c8c"/>
          <path id="패스_506" data-name="패스 506" d="M126.386,262.662l.234.683,19-26.757-19,11.218-.234.285Z" transform="translate(-107.632 -201.48)" fill="#3c3c3b"/>
          <path id="패스_507" data-name="패스 507" d="M0,236.585l18.988,26.758V247.8Z" transform="translate(0 -201.478)" fill="#8c8c8c"/>
          <path id="패스_508" data-name="패스 508" d="M127.961,154.159v19.854l18.988-11.224Z" transform="translate(-108.973 -131.283)" fill="#141414"/>
          <path id="패스_509" data-name="패스 509" d="M18.988,154.159,0,162.789l18.988,11.224Z" transform="translate(0 -131.283)" fill="#393939"/>
        </g>
      </g>
      <g id="그룹_866" data-name="그룹 866" transform="translate(-112.581 98.5)">
        <path id="패스_475" data-name="패스 475" d="M134.5,134A52.5,52.5,0,0,0,187,81.5a53.084,53.084,0,0,0-2.256-15.273A52.506,52.506,0,1,0,134.5,134Z" transform="translate(246.581 -385.5)" fill="#24a980"/>
        <path id="패스_476" data-name="패스 476" d="M137.4,82.185l-6.4.169c-3.372,0-5.647-.084-6.49-.169-12.725-.506-22.333-2.781-22.333-5.394,0-2.7,9.523-4.888,22.333-5.478v8.68c.844.084,3.2.169,6.573.169,3.961,0,5.984-.169,6.322-.169v-8.68c12.81.59,22.333,2.781,22.333,5.478C159.729,79.4,150.205,81.678,137.4,82.185Zm0-11.8V62.633h17.866V50.75H106.719V62.633h17.866v7.753c-14.5.674-25.366,3.539-25.366,7s10.871,6.32,25.366,7v24.945h12.9V84.375c14.494-.674,25.366-3.539,25.366-7-.084-3.455-10.955-6.32-25.45-7Z" transform="translate(250.111 -380.949)" fill="#fffdfa"/>
      </g>
    </g>
  </g>
</svg>
