<?xml version="1.0" encoding="utf-8"?>
<!-- Generator: Adobe Illustrator 16.0.0, SVG Export Plug-In . SVG Version: 6.00 Build 0)  -->
<!DOCTYPE svg PUBLIC "-//W3C//DTD SVG 1.1//EN" "http://www.w3.org/Graphics/SVG/1.1/DTD/svg11.dtd">
<svg version="1.1" id="Layer_1" xmlns="http://www.w3.org/2000/svg" xmlns:xlink="http://www.w3.org/1999/xlink" x="0px" y="0px"
	 width="68px" height="68px" viewBox="0 0 68 68" enable-background="new 0 0 68 68" xml:space="preserve">
<g>
	<linearGradient id="SVGID_1_" gradientUnits="userSpaceOnUse" x1="12.4302" y1="12.4302" x2="55.5699" y2="55.5699">
		<stop  offset="0" style="stop-color:#243B84"/>
		<stop  offset="1" style="stop-color:#162358"/>
	</linearGradient>
	<circle fill="url(#SVGID_1_)" cx="34" cy="33.999" r="30.505"/>
	<g>
		<path fill="#FFFFFF" d="M33.452,35.347l-0.035,4.003c-0.02,2.521-1.183,3.473-3.789,3.447l-2.476-0.023
			c-2.961-0.027-4.76-0.83-4.735-3.68c0.024-2.862,1.853-3.634,4.798-3.608l2.863,0.024l0.002-0.194
			c0.011-1.334-0.761-1.924-2.53-1.937c-0.874-0.008-1.726,0.128-2.854,0.351c-0.767,0.14-1.225-0.218-1.218-0.993l0.007-0.45
			c0.004-0.667,0.383-1.1,1.174-1.25c1.323-0.268,2.334-0.427,3.399-0.418C31.346,30.649,33.481,32.085,33.452,35.347 M30.047,39.15
			l0.011-1.226L27.365,37.9c-1.466-0.013-1.773,0.325-1.78,1.221c-0.009,0.887,0.292,1.227,1.747,1.242l1.493,0.01
			C29.868,40.385,30.041,39.963,30.047,39.15"/>
		<path fill="#FFFFFF" d="M37.94,26.535l-1.359-0.011c-0.577-0.007-1.049,0.46-1.056,1.04L35.4,41.801
			c-0.006,0.576,0.459,1.051,1.04,1.057l1.359,0.01c0.58,0.006,1.051-0.461,1.057-1.035l0.122-14.24
			C38.986,27.015,38.521,26.54,37.94,26.535"/>
		<path fill="#FFFFFF" d="M52.204,41.713l-0.063-0.074l-4.438-5.061l4.45-4.275l0.03-0.031c0.494-0.518,0.297-1.043-0.439-1.176
			c-0.108-0.022-0.222-0.03-0.341-0.03h-0.027l-1.196-0.011c-0.517-0.004-1.047,0.189-1.368,0.508l-0.011,0.011l-4.459,4.29
			l0.071-8.223c0.003-0.578-0.461-1.053-1.037-1.057l-1.361-0.011c-0.58-0.006-1.053,0.459-1.057,1.04l-0.124,14.234
			c-0.007,0.58,0.459,1.053,1.038,1.061l1.36,0.01c0.579,0.006,1.052-0.459,1.056-1.039l0.041-4.541l4.396,5.011l0.028,0.039
			c0.322,0.377,0.929,0.605,1.499,0.588l-0.063,0.004l1.195,0.006l-0.093-0.002c0.154,0.008,0.302,0,0.444-0.025
			C52.479,42.826,52.689,42.268,52.204,41.713"/>
		<path fill="#FFFFFF" d="M24.234,26.416l-11.422-0.1c-0.577-0.004-1.052,0.459-1.056,1.037l-0.009,0.974
			c-0.004,0.58,0.46,1.053,1.037,1.057l3.983,0.035L16.66,41.635c-0.004,0.576,0.46,1.049,1.04,1.061l1.36,0.008
			c0.58,0.006,1.052-0.459,1.057-1.037l0.107-12.217l3.985,0.035c0.578,0.004,1.05-0.46,1.057-1.04l0.006-0.971
			C25.277,26.895,24.811,26.42,24.234,26.416"/>
	</g>
</g>
<path fill="#FFFFFF" d="M53.98,25.014c-1.268-0.011-2.305,1.008-2.315,2.275c-0.012,1.268,1.007,2.303,2.276,2.315
	c1.264,0.011,2.302-1.008,2.313-2.276C56.267,26.062,55.246,25.025,53.98,25.014z"/>
<title>ic_korc</title>
<desc>Created with Sketch.</desc>
<g id="ic_korc">
	<g>
		<g id="ORC" transform="translate(42.000000, 42.000000)">
			
				<radialGradient id="Oval_1_" cx="-494.5562" cy="483.626" r="0.8637" gradientTransform="matrix(30 0 0 -30 14852 14525.875)" gradientUnits="userSpaceOnUse">
				<stop  offset="0" style="stop-color:#00AE87"/>
				<stop  offset="1" style="stop-color:#0767B2"/>
			</radialGradient>
			<circle id="Oval" fill="url(#Oval_1_)" cx="6.14" cy="7.93" r="9.161"/>
			<path id="Combined-Shape_1_" fill="#FFFFFF" d="M0.843,7.559c0.278,0,0.5,0.226,0.5,0.504v0.002v0.003h0.003v0.001
				c0,2.242,1.567,4.117,3.659,4.578c0.322,0.068,0.654,0.108,0.997,0.108l0,0h0.001c0.007,0,0.017,0,0.021,0
				c0.277,0,0.503,0.225,0.503,0.502c0,0.279-0.226,0.503-0.503,0.503H6.016H6.003l0,0h0.083c-0.026,0-0.054,0.002-0.082,0.002
				c-0.438,0-0.867-0.052-1.276-0.146c-2.486-0.574-4.348-2.799-4.386-5.463L0.34,8.069V8.063C0.34,7.784,0.565,7.559,0.843,7.559z
				 M6.14,4.459c1.92,0,3.478,1.56,3.478,3.489c0,1.926-1.558,3.487-3.478,3.487c-1.923,0-3.48-1.562-3.48-3.487
				C2.659,6.019,4.217,4.459,6.14,4.459z M6.14,5.932c-1.11,0-2.008,0.902-2.008,2.017c0,1.108,0.897,2.013,2.008,2.013
				c1.111,0,2.008-0.904,2.008-2.013C8.147,6.834,7.251,5.932,6.14,5.932z M11.166,8.851c0.281,0,0.516,0.23,0.516,0.518
				c0,0.284-0.234,0.516-0.516,0.516c-0.284,0-0.518-0.231-0.518-0.516C10.648,9.081,10.882,8.851,11.166,8.851z M6.277,2.129
				c3.094,0,5.609,2.502,5.66,5.601v0.094c0,0.002,0,0.004,0,0.007c0,0.278-0.223,0.503-0.501,0.503c-0.277,0-0.5-0.225-0.5-0.503
				V7.826V7.823c-0.003-2.561-2.046-4.643-4.583-4.683L6.277,3.14H6.275c-0.009,0-0.015,0-0.021,0c-0.278,0-0.501-0.225-0.501-0.505
				c0-0.278,0.223-0.506,0.501-0.506l0.01,0.004h0.011V2.129H6.277z M1.112,6.008c0.286,0,0.521,0.231,0.521,0.518
				c0,0.285-0.234,0.516-0.521,0.516c-0.281,0-0.514-0.23-0.514-0.516C0.599,6.239,0.831,6.008,1.112,6.008z"/>
		</g>
	</g>
</g>
</svg>
