<svg width="101" height="102" viewBox="0 0 101 102" fill="none" xmlns="http://www.w3.org/2000/svg">
<mask id="mask0_389_447" style="mask-type:alpha" maskUnits="userSpaceOnUse" x="0" y="0" width="101" height="101">
<rect x="0.891968" y="1.41455" width="99" height="99" rx="49.5" fill="#FF8025" stroke="black"/>
</mask>
<g mask="url(#mask0_389_447)">
<path d="M100.392 50.8966C100.392 23.2923 78.0062 0.914551 50.392 0.914551C22.7777 0.914551 0.391968 23.2923 0.391968 50.8966V50.9325C0.391968 78.5368 22.7777 100.915 50.392 100.915C78.0062 100.915 100.392 78.5368 100.392 50.9325V50.8966Z" fill="#2775CA"/>
</g>
<g clip-path="url(#clip0_389_447)">
<path d="M50.5502 101.085C78.2587 101.085 100.55 78.7939 100.55 51.0854C100.55 23.377 78.2587 1.08545 50.5502 1.08545C22.8417 1.08545 0.550171 23.377 0.550171 51.0854C0.550171 78.7939 22.8417 101.085 50.5502 101.085Z" fill="#2775CA"/>
<path d="M64.3007 59.0015C64.3007 51.71 59.9257 49.21 51.1757 48.1685C44.9257 47.335 43.6757 45.6685 43.6757 42.7515C43.6757 39.8345 45.7592 37.96 49.9257 37.96C53.6757 37.96 55.7592 39.21 56.8007 42.335C57.0092 42.96 57.6342 43.3765 58.2592 43.3765H61.5922C62.4257 43.3765 63.0507 42.7515 63.0507 41.9185V41.71C62.2172 37.1265 58.4672 33.585 53.6757 33.1685V28.1685C53.6757 27.335 53.0507 26.71 52.0092 26.5015H48.8842C48.0507 26.5015 47.4257 27.1265 47.2172 28.1685V32.96C40.9672 33.7935 37.0092 37.96 37.0092 43.1685C37.0092 50.0435 41.1757 52.7515 49.9257 53.7935C55.7592 54.835 57.6342 56.085 57.6342 59.4185C57.6342 62.752 54.7172 65.0435 50.7592 65.0435C45.3422 65.0435 43.4672 62.7515 42.8422 59.6265C42.6342 58.7935 42.0092 58.3765 41.3842 58.3765H37.8422C37.0092 58.3765 36.3842 59.0015 36.3842 59.835V60.0435C37.2172 65.2515 40.5507 69.0015 47.4257 70.0435V75.0435C47.4257 75.8765 48.0507 76.5015 49.0922 76.71H52.2172C53.0507 76.71 53.6757 76.085 53.8842 75.0435V70.0435C60.1342 69.0015 64.3007 64.6265 64.3007 59.0015Z" fill="white"/>
<path d="M39.9253 80.8774C23.6753 75.0444 15.3418 56.9194 21.3838 40.8774C24.5088 32.1274 31.3838 25.4609 39.9253 22.3359C40.7588 21.9194 41.1753 21.2944 41.1753 20.2524V17.3359C41.1753 16.5024 40.7588 15.8774 39.9253 15.6694C39.7168 15.6694 39.3003 15.6694 39.0918 15.8774C19.3003 22.1274 8.46683 43.1694 14.7168 62.9609C18.4668 74.6274 27.4253 83.5859 39.0918 87.3359C39.9253 87.7524 40.7588 87.3359 40.9668 86.5024C41.1753 86.2944 41.1753 86.0859 41.1753 85.6694V82.7524C41.1753 82.1274 40.5503 81.2944 39.9253 80.8774ZM62.0088 15.8774C61.1753 15.4609 60.3418 15.8774 60.1338 16.7109C59.9253 16.9194 59.9253 17.1274 59.9253 17.5444V20.4609C59.9253 21.2944 60.5503 22.1274 61.1753 22.5444C77.4253 28.3774 85.7588 46.5024 79.7168 62.5444C76.5918 71.2944 69.7168 77.9609 61.1753 81.0859C60.3418 81.5024 59.9253 82.1274 59.9253 83.1694V86.0859C59.9253 86.9194 60.3418 87.5444 61.1753 87.7524C61.3838 87.7524 61.8003 87.7524 62.0088 87.5444C81.8003 81.2944 92.6338 60.2524 86.3838 40.4609C82.6338 28.5859 73.4668 19.6274 62.0088 15.8774Z" fill="white"/>
</g>
<path fill-rule="evenodd" clip-rule="evenodd" d="M77.0612 53.7153C89.9488 53.7153 100.395 64.1611 100.395 77.0487C100.395 89.9362 89.9488 100.382 77.0612 100.382C64.1737 100.382 53.7279 89.9362 53.7279 77.0487C53.7279 64.1611 64.1737 53.7153 77.0612 53.7153Z" fill="url(#paint0_linear_389_447)"/>
<path d="M77.0673 94.8352C72.3487 94.8325 67.824 92.9578 64.4861 89.6227C61.1481 86.2875 59.2697 81.7644 59.2631 77.0458C59.2709 72.3276 61.1497 67.8051 64.4874 64.4702C67.825 61.1353 72.3491 59.2603 77.0673 59.2563C81.7859 59.2591 86.3106 61.1337 89.6486 64.4689C92.9865 67.804 94.8649 72.3272 94.8716 77.0458C94.8649 81.7644 92.9865 86.2875 89.6486 89.6227C86.3106 92.9578 81.7859 94.8325 77.0673 94.8352ZM77.0673 60.6261C72.7122 60.6293 68.536 62.3597 65.4551 65.4379C62.3741 68.5161 60.6399 72.6906 60.6329 77.0458C60.6909 81.3662 62.4479 85.4901 65.5237 88.5248C68.5994 91.5595 72.7465 93.261 77.0673 93.261C81.3882 93.261 85.5352 91.5595 88.611 88.5248C91.6867 85.4901 93.4438 81.3662 93.5018 77.0458C93.4951 72.6905 91.761 68.5157 88.68 65.4375C85.5989 62.3592 81.4226 60.6289 77.0673 60.6261Z" fill="white" fill-opacity="0.9"/>
<path d="M79.3182 92.0245C75.409 92.0217 71.6606 90.4684 68.8953 87.7053C66.13 84.9422 64.5736 81.1951 64.5677 77.2859C64.574 73.3769 66.1305 69.6299 68.8957 66.8669C71.6609 64.1039 75.4091 62.5505 79.3182 62.5474C83.2269 62.5513 86.9747 64.105 89.7397 66.8678C92.5048 69.6306 94.0615 73.3771 94.0686 77.2859C94.0623 81.1949 92.5058 84.9419 89.7406 87.7049C86.9754 90.4679 83.2272 92.0213 79.3182 92.0245ZM79.3182 63.6103C75.6914 63.6134 72.214 65.055 69.6489 67.6188C67.0837 70.1826 65.6402 73.6592 65.6351 77.2859C65.641 80.9121 67.0848 84.388 69.6499 86.9511C72.215 89.5142 75.6919 90.9554 79.3182 90.9586C82.9447 90.9562 86.4223 89.5153 88.9878 86.9521C91.5533 84.3888 92.9972 80.9125 93.0027 77.2859C92.9976 73.6592 91.5538 70.1827 88.9882 67.6193C86.4226 65.056 82.9449 63.6152 79.3182 63.6132V63.6103Z" fill="white" fill-opacity="0.9"/>
<path d="M81.5651 89.2083C78.4652 89.206 75.4929 87.9741 73.3001 85.783C71.1074 83.5919 69.8732 80.6205 69.8685 77.5206C69.8736 74.4211 71.1079 71.45 73.3006 69.2592C75.4934 67.0685 78.4655 65.8368 81.5651 65.8345C84.665 65.8356 87.6379 67.0669 89.8308 69.2579C92.0238 71.449 93.2577 74.4207 93.2616 77.5206C93.2554 80.62 92.0208 83.5905 89.8283 85.7813C87.6359 87.972 84.6645 89.2044 81.5651 89.2083ZM81.5651 66.5935C78.6668 66.5954 75.8877 67.747 73.8374 69.7956C71.7872 71.8442 70.6333 74.6224 70.629 77.5206C70.633 80.4189 71.7867 83.1972 73.8371 85.2456C75.8874 87.294 78.6668 88.4452 81.5651 88.4463C84.4633 88.4452 87.2427 87.294 89.2931 85.2456C91.3434 83.1972 92.4972 80.4189 92.5011 77.5206C92.4964 74.6226 91.3424 71.8448 89.2922 69.7966C87.242 67.7483 84.4631 66.5969 81.5651 66.595V66.5935Z" fill="white" fill-opacity="0.9"/>
<path d="M83.8237 86.3932C81.5333 86.3916 79.337 85.4815 77.7168 83.8627C76.0965 82.2438 75.1846 80.0483 75.181 77.7579C75.1838 75.4669 76.0954 73.2707 77.7157 71.6512C79.3361 70.0317 81.5328 69.1212 83.8237 69.1196C86.1148 69.1204 88.3118 70.0307 89.9321 71.6504C91.5524 73.2701 92.4634 75.4668 92.4649 77.7579C92.4622 80.0481 91.5507 82.2437 89.9305 83.8625C88.3103 85.4813 86.114 86.3924 83.8237 86.3932ZM83.8237 69.5762C81.6538 69.5774 79.573 70.4396 78.0381 71.9736C76.5033 73.5076 75.64 75.5879 75.6376 77.7579C75.6423 79.9268 76.5065 82.0055 78.0409 83.5385C79.5753 85.0715 81.6548 85.9338 83.8237 85.9366C85.9929 85.935 88.0729 85.073 89.6073 83.5397C91.1417 82.0064 92.0052 79.9271 92.0083 77.7579C92.0056 75.5883 91.1423 73.5084 89.6079 71.9746C88.0735 70.4407 85.9933 69.5782 83.8237 69.5762Z" fill="white" fill-opacity="0.9"/>
<defs>
<linearGradient id="paint0_linear_389_447" x1="77.0612" y1="53.7153" x2="77.0612" y2="100.382" gradientUnits="userSpaceOnUse">
<stop stop-color="#2C1D42"/>
<stop offset="1" stop-color="#150E32"/>
</linearGradient>
<clipPath id="clip0_389_447">
<rect width="100" height="100" fill="white" transform="translate(0.550171 1.08545)"/>
</clipPath>
</defs>
</svg>
