<svg width="101" height="100" viewBox="0 0 101 100" fill="none" xmlns="http://www.w3.org/2000/svg">
<mask id="mask0_389_432" style="mask-type:alpha" maskUnits="userSpaceOnUse" x="0" y="-1" width="101" height="101">
<rect x="0.68689" y="0.499512" width="99" height="99" rx="49.5" fill="#FF8025" stroke="black"/>
</mask>
<g mask="url(#mask0_389_432)">
<path d="M100.187 49.9815C100.187 22.3772 77.8011 -0.000488281 50.1869 -0.000488281C22.5727 -0.000488281 0.18689 22.3772 0.18689 49.9815V50.0175C0.18689 77.6218 22.5727 99.9995 50.1869 99.9995C77.8011 99.9995 100.187 77.6218 100.187 50.0175V49.9815Z" fill="#009393"/>
<path fill-rule="evenodd" clip-rule="evenodd" d="M29.6459 23.938H71.5716C72.0633 23.938 72.5464 24.0678 72.972 24.3142C73.3976 24.5607 73.7506 24.915 73.9954 25.3415L86.2125 46.5989C86.8436 47.7004 86.6573 49.0934 85.7527 49.986L52.131 83.2516C51.6079 83.7695 50.9015 84.0601 50.1654 84.0601C49.4293 84.0601 48.7229 83.7695 48.1999 83.2516L14.6232 50.0311C14.1741 49.5865 13.8884 49.0031 13.8126 48.3757C13.7368 47.7483 13.8752 47.1137 14.2055 46.5749L27.2626 25.2754C27.5121 24.8671 27.8623 24.5297 28.2796 24.2955C28.6969 24.0614 29.1673 23.9383 29.6459 23.938ZM66.1588 33.4291V39.3934H54.2152V43.5289C62.6034 43.9707 68.8967 45.7859 68.9448 47.9619V52.4955C68.8967 54.6715 62.6034 56.4868 54.2152 56.9286V67.0764H46.2854V56.9286C37.8973 56.4868 31.6039 54.6715 31.5573 52.4955V47.9604C31.6024 45.7859 37.8973 43.9707 46.2839 43.5274V39.3934H34.3418V33.4276L66.1588 33.4291ZM50.2511 53.8119C59.2027 53.8119 66.6847 52.2762 68.515 50.2265C66.9627 48.4893 61.3471 47.1203 54.2152 46.7447V51.0755C51.5738 51.2144 48.9269 51.2144 46.2854 51.0755V46.7462C39.155 47.1218 33.5379 48.4893 31.9856 50.2265C33.8159 52.2762 41.2994 53.8119 50.2511 53.8119Z" fill="white"/>
</g>
<path fill-rule="evenodd" clip-rule="evenodd" d="M76.8562 52.8003C89.7437 52.8003 100.189 63.2461 100.189 76.1336C100.189 89.0212 89.7437 99.467 76.8562 99.467C63.9686 99.467 53.5228 89.0212 53.5228 76.1336C53.5228 63.2461 63.9686 52.8003 76.8562 52.8003Z" fill="url(#paint0_linear_389_432)"/>
<path d="M76.8622 93.9202C72.1437 93.9174 67.6189 92.0428 64.281 88.7076C60.9431 85.3725 59.0647 80.8493 59.058 76.1307C59.0658 71.4125 60.9446 66.89 64.2823 63.5551C67.62 60.2203 72.144 58.3452 76.8622 58.3413C81.5808 58.3441 86.1056 60.2187 89.4435 63.5538C92.7814 66.889 94.6598 71.4122 94.6665 76.1307C94.6598 80.8493 92.7814 85.3725 89.4435 88.7076C86.1056 92.0428 81.5808 93.9174 76.8622 93.9202ZM76.8622 59.7111C72.5071 59.7142 68.331 61.4447 65.25 64.5229C62.1691 67.601 60.4348 71.7756 60.4278 76.1307C60.4858 80.4512 62.2428 84.575 65.3186 87.6098C68.3943 90.6445 72.5414 92.346 76.8622 92.346C81.1831 92.346 85.3302 90.6445 88.4059 87.6098C91.4817 84.575 93.2387 80.4512 93.2967 76.1307C93.29 71.7755 91.5559 67.6007 88.4749 64.5224C85.3939 61.4442 81.2175 59.7138 76.8622 59.7111Z" fill="white" fill-opacity="0.9"/>
<path d="M79.1131 91.1094C75.2039 91.1067 71.4555 89.5534 68.6902 86.7903C65.9249 84.0272 64.3686 80.28 64.3627 76.3709C64.369 72.4618 65.9254 68.7149 68.6906 65.9519C71.4558 63.1889 75.204 61.6355 79.1131 61.6323C83.0219 61.6362 86.7696 63.1899 89.5347 65.9528C92.2997 68.7156 93.8564 72.4621 93.8635 76.3709C93.8572 80.2799 92.3007 84.0269 89.5355 86.7898C86.7703 89.5528 83.0221 91.1063 79.1131 91.1094ZM79.1131 62.6952C75.4864 62.6984 72.009 64.14 69.4438 66.7038C66.8786 69.2675 65.4351 72.7442 65.43 76.3709C65.4359 79.9971 66.8797 83.4729 69.4448 86.0361C72.0099 88.5992 75.4869 90.0404 79.1131 90.0435C82.7397 90.0412 86.2172 88.6003 88.7827 86.037C91.3482 83.4737 92.7921 79.9975 92.7976 76.3709C92.7925 72.7442 91.3487 69.2676 88.7831 66.7043C86.2176 64.1409 82.7398 62.7002 79.1131 62.6982V62.6952Z" fill="white" fill-opacity="0.9"/>
<path d="M81.36 88.2933C78.2601 88.2909 75.2878 87.0591 73.095 84.868C70.9023 82.6769 69.6682 79.7055 69.6635 76.6056C69.6686 73.506 70.9028 70.535 73.0956 68.3442C75.2883 66.1534 78.2604 64.9218 81.36 64.9194C84.46 64.9206 87.4328 66.1519 89.6257 68.3429C91.8187 70.5339 93.0526 73.5057 93.0566 76.6056C93.0503 79.705 91.8157 82.6755 89.6232 84.8662C87.4308 87.057 84.4594 88.2894 81.36 88.2933ZM81.36 65.6784C78.4617 65.6804 75.6826 66.832 73.6324 68.8806C71.5821 70.9291 70.4283 73.7073 70.424 76.6056C70.4279 79.5039 71.5817 82.2822 73.632 84.3306C75.6824 86.379 78.4617 87.5301 81.36 87.5313C84.2583 87.5301 87.0376 86.379 89.088 84.3306C91.1384 82.2822 92.2921 79.5039 92.2961 76.6056C92.2913 73.7076 91.1373 70.9298 89.0871 68.8815C87.0369 66.8333 84.258 65.6819 81.36 65.6799V65.6784Z" fill="white" fill-opacity="0.9"/>
<path d="M83.6187 85.4781C81.3282 85.4766 79.132 84.5665 77.5117 82.9476C75.8914 81.3288 74.9795 79.1333 74.976 76.8428C74.9787 74.5519 75.8903 72.3557 77.5106 70.7361C79.131 69.1166 81.3277 68.2062 83.6187 68.2046C85.9097 68.2054 88.1067 69.1156 89.727 70.7354C91.3473 72.3551 92.2583 74.5518 92.2599 76.8428C92.2571 79.1331 91.3456 81.3287 89.7254 82.9474C88.1053 84.5662 85.9089 85.4773 83.6187 85.4781ZM83.6187 68.6612C81.4487 68.6624 79.3679 69.5246 77.8331 71.0586C76.2983 72.5925 75.4349 74.6729 75.4325 76.8428C75.4373 79.0118 76.3015 81.0905 77.8358 82.6235C79.3702 84.1565 81.4497 85.0188 83.6187 85.0215C85.7878 85.02 87.8678 84.158 89.4022 82.6247C90.9366 81.0914 91.8001 79.012 91.8033 76.8428C91.8005 74.6733 90.9372 72.5934 89.4028 71.0595C87.8684 69.5257 85.7882 68.6631 83.6187 68.6612Z" fill="white" fill-opacity="0.9"/>
<defs>
<linearGradient id="paint0_linear_389_432" x1="76.8562" y1="52.8003" x2="76.8562" y2="99.467" gradientUnits="userSpaceOnUse">
<stop stop-color="#2C1D42"/>
<stop offset="1" stop-color="#150E32"/>
</linearGradient>
</defs>
</svg>
