<svg xmlns="http://www.w3.org/2000/svg" xmlns:xlink="http://www.w3.org/1999/xlink" width="98.5" height="98.5" viewBox="0 0 98.5 98.5">
  <defs>
    <linearGradient id="linear-gradient" y1="0.5" x2="1" y2="0.5" gradientUnits="objectBoundingBox">
      <stop offset="0.257" stop-color="#fff"/>
      <stop offset="1" stop-color="#e6e6e6"/>
    </linearGradient>
  </defs>
  <g id="그룹_853" data-name="그룹 853" transform="translate(252 97)">
    <g id="그룹_851" data-name="그룹 851" transform="translate(-380.15 -271.989)">
      <circle id="타원_13" data-name="타원 13" cx="48" cy="48" r="48" transform="translate(128.15 174.989)" fill="#00ab55"/>
      <g id="그룹_673" data-name="그룹 673" transform="translate(137.406 197.485)">
        <path id="패스_334" data-name="패스 334" d="M205.438,294a9.761,9.761,0,0,0-17.745,0L174.7,322.327c-1.646,3.588-.418,8.01,2.741,9.879s7.055.475,8.7-3.113L191,318.5a6.125,6.125,0,0,1,11.134,0l5.012,10.927a6.125,6.125,0,0,0,11.134,0l5.013-10.928a6.125,6.125,0,0,1,11.134,0l4.859,10.593c1.646,3.588,5.541,4.981,8.7,3.113s4.387-6.292,2.741-9.879l-13-28.331a9.761,9.761,0,0,0-17.745,0L214.4,306.17a1.86,1.86,0,0,1-3.38,0Z" transform="translate(-173.968 -288.305)" fill="#d3d3d3"/>
        <path id="패스_335" data-name="패스 335" d="M265.352,294.184l-.014-.028c-.079-.172-.164-.339-.25-.5-.022-.041-.044-.083-.066-.124q-.134-.246-.28-.48l-.069-.108c-.094-.147-.19-.291-.29-.431l-.036-.052c-.108-.15-.221-.294-.336-.435l-.083-.1q-.172-.205-.352-.4l-.074-.077q-.172-.179-.35-.347l-.053-.051c-.13-.12-.263-.235-.4-.347l-.093-.076c-.136-.11-.274-.216-.415-.317l-.02-.015-.062-.042q-.15-.106-.3-.2l-.069-.046-.052-.032c-.125-.078-.251-.154-.378-.226l-.018-.009c-.06-.034-.121-.064-.182-.1-.091-.048-.182-.1-.275-.143-.067-.033-.135-.063-.2-.094-.088-.041-.176-.082-.264-.119-.071-.03-.143-.058-.214-.086-.087-.035-.174-.069-.262-.1s-.148-.051-.222-.077-.174-.059-.262-.086-.152-.045-.228-.066-.175-.049-.263-.071-.155-.037-.232-.055-.176-.039-.264-.056-.157-.03-.235-.043-.177-.029-.266-.042l-.236-.032q-.134-.016-.269-.028c-.079-.007-.158-.015-.237-.02s-.18-.01-.27-.014-.158-.007-.237-.008-.182,0-.273,0-.156,0-.234,0-.185.009-.277.014c-.076,0-.153.008-.229.014-.1.008-.19.019-.285.029-.073.008-.147.015-.22.025-.1.013-.2.03-.3.047-.067.011-.135.02-.2.033-.12.022-.239.049-.358.076-.046.01-.093.019-.139.03q-.245.059-.488.13c-.055.016-.109.035-.164.053-.107.034-.215.067-.321.1-.067.024-.132.05-.2.075-.094.035-.187.07-.28.108-.069.028-.137.06-.205.09-.088.039-.176.077-.263.118-.07.033-.138.069-.207.1-.084.043-.169.085-.252.13s-.137.077-.205.117-.162.094-.242.143-.135.086-.2.129-.156.1-.233.156-.132.094-.2.141-.15.112-.225.17-.128.1-.191.153-.145.121-.217.184-.123.108-.183.164-.14.131-.208.2-.118.116-.175.175-.134.142-.2.214-.111.122-.166.184-.129.154-.193.232-.1.127-.154.192c-.064.082-.125.168-.186.253-.047.066-.1.13-.141.2-.062.091-.122.186-.181.28-.041.065-.084.129-.124.2-.064.106-.124.216-.185.326-.033.059-.067.116-.1.175q-.131.247-.25.506l-.01.02-5.584,12.175h0a1.979,1.979,0,0,1-.128.233l-.019.03a1.848,1.848,0,0,1-.147.192l-.029.033a1.787,1.787,0,0,1-.166.16l-.032.026a1.826,1.826,0,0,1-.188.135l-.02.012a1.779,1.779,0,0,1-.2.1l-.021.01a1.849,1.849,0,0,1-.213.075l-.039.011a1.855,1.855,0,0,1-.214.044l-.043.006a1.891,1.891,0,0,1-.219.015h-.035a1.94,1.94,0,0,1-.231-.015l-.018,0a1.893,1.893,0,0,1-.216-.044c-.03-.008-.058-.019-.088-.028-.047-.015-.094-.03-.139-.049s-.065-.029-.1-.045-.081-.039-.12-.062-.065-.039-.1-.06-.072-.05-.107-.076-.062-.048-.092-.075-.064-.06-.1-.092-.057-.057-.084-.089-.057-.073-.085-.111-.05-.065-.072-.1-.056-.1-.082-.149c-.015-.029-.032-.055-.046-.085l-5.584-12.174c-.079-.172-.162-.339-.248-.5l-.03-.055c-.075-.141-.152-.279-.232-.414-.023-.038-.047-.076-.07-.113-.069-.113-.139-.225-.212-.334-.029-.044-.06-.087-.09-.13-.069-.1-.139-.2-.212-.3-.034-.045-.068-.089-.1-.133q-.107-.138-.218-.271l-.111-.13q-.112-.129-.228-.254l-.115-.122q-.119-.123-.242-.241l-.116-.111c-.086-.08-.174-.158-.262-.235l-.108-.094c-.1-.082-.2-.161-.3-.238l-.087-.068q-.186-.141-.378-.271l-.018-.012a9.478,9.478,0,0,0-.846-.51l-.071-.036c-.118-.062-.237-.122-.357-.179l-.119-.054c-.106-.048-.211-.095-.319-.139l-.141-.056c-.1-.04-.2-.079-.305-.115l-.153-.052q-.15-.051-.3-.1l-.159-.046q-.151-.043-.3-.081l-.161-.039c-.1-.024-.206-.045-.309-.066l-.157-.031c-.108-.02-.216-.037-.324-.053l-.144-.022c-.118-.016-.237-.028-.356-.04l-.115-.012q-.227-.02-.454-.029h-.017q-.244-.009-.487-.007h-.026q-.222,0-.445.016l-.128.01c-.114.008-.228.017-.342.029l-.162.02c-.1.012-.2.025-.307.041l-.176.029c-.1.017-.194.034-.29.053l-.182.039q-.14.031-.28.066l-.185.048c-.092.025-.183.052-.274.079l-.183.057c-.091.03-.181.061-.271.094-.06.021-.119.042-.178.065l-.072.026q-.164.064-.326.134l-.028.013c-.126.055-.252.114-.376.174l-.1.049c-.133.066-.264.135-.394.208a9.622,9.622,0,0,0-4.046,4.441l-6.985,15.229v0a9.762,9.762,0,0,1,17.442.6l3.932,8.573.011.024h0c.012.026.026.05.038.076l5.012,10.927.013.026q.094.2.2.393c.027.049.056.094.084.142.049.085.1.17.151.251.034.053.071.1.106.154.05.072.1.144.151.213.039.052.08.1.121.151s.1.129.157.19.088.1.133.144.108.116.165.171.095.09.142.134.114.1.172.154.1.083.151.124.119.094.18.139.105.076.159.113.124.084.187.124.109.068.164.1.129.074.194.109.112.06.169.089.134.064.2.1.115.052.173.076.139.055.209.081.116.044.174.064.145.046.218.068.115.036.173.051c.076.02.153.037.23.055.056.013.111.027.168.038.084.017.168.029.252.042.05.008.1.018.15.024.119.016.238.027.358.036.155.012.31.019.465.019h.015c.041,0,.081,0,.122,0,.1,0,.208,0,.312-.012.049,0,.1-.01.147-.015.1-.009.191-.018.286-.032.052-.007.1-.017.156-.026.091-.015.183-.031.273-.05.053-.011.105-.025.158-.038.089-.021.178-.043.265-.069.053-.015.1-.032.157-.049.087-.028.174-.056.259-.088.052-.019.1-.039.154-.06.085-.034.17-.069.254-.107.05-.023.1-.046.148-.07q.126-.061.249-.128l.141-.079c.082-.047.163-.1.243-.149.045-.029.089-.058.133-.088.081-.055.16-.113.238-.172.041-.031.082-.062.122-.094.079-.064.157-.13.233-.2.037-.033.074-.064.11-.1.078-.073.154-.15.229-.229.031-.033.063-.064.094-.1.079-.086.154-.176.228-.267.024-.03.05-.058.074-.089.082-.1.159-.213.235-.324.014-.021.029-.04.043-.061a6.4,6.4,0,0,0,.489-.876l5.012-10.927c.012-.026.026-.05.038-.076l.011-.025h0l3.932-8.572a9.762,9.762,0,0,1,17.442-.6h0Z" transform="translate(-201.589 -288.456)" fill="url(#linear-gradient)"/>
      </g>
    </g>
    <g id="그룹_852" data-name="그룹 852" transform="translate(-315.817 -207.656)">
      <g id="타원_13-2" data-name="타원 13" transform="translate(127.817 174.656)" fill="#00ab55" stroke="#fff" stroke-width="2.5">
        <circle cx="16" cy="16" r="16" stroke="none"/>
        <circle cx="16" cy="16" r="17.25" fill="none"/>
      </g>
      <g id="그룹_673-2" data-name="그룹 673" transform="translate(131.141 182.312)">
        <path id="패스_334-2" data-name="패스 334" d="M184.263,290.167a3.193,3.193,0,0,0-5.805,0l-4.251,9.269a2.563,2.563,0,0,0,.9,3.232,1.994,1.994,0,0,0,2.846-1.018l1.59-3.465a2,2,0,0,1,3.643,0l1.64,3.575a2,2,0,0,0,3.643,0l1.64-3.575a2,2,0,0,1,3.643,0l1.59,3.466a1.994,1.994,0,0,0,2.846,1.018,2.563,2.563,0,0,0,.9-3.232l-4.252-9.269a3.193,3.193,0,0,0-5.805,0L187.2,294.15a.608.608,0,0,1-1.106,0Z" transform="translate(-173.968 -288.305)" fill="#d3d3d3"/>
        <path id="패스_335-2" data-name="패스 335" d="M226.985,290.355l0-.009c-.026-.056-.054-.111-.082-.165l-.022-.041q-.044-.08-.091-.157l-.023-.035c-.031-.048-.062-.1-.095-.141l-.012-.017c-.035-.049-.072-.1-.11-.142l-.027-.033q-.056-.067-.115-.13l-.024-.025q-.056-.059-.115-.114l-.017-.017c-.043-.039-.086-.077-.13-.114l-.03-.025c-.044-.036-.09-.071-.136-.1l-.006,0-.02-.014-.1-.067-.023-.015-.017-.01c-.041-.025-.082-.05-.124-.074l-.006,0-.059-.031-.09-.047-.066-.031-.087-.039-.07-.028-.086-.033-.073-.025-.086-.028-.075-.022-.086-.023-.076-.018-.086-.018-.077-.014-.087-.014-.077-.01-.088-.009-.078-.007-.088,0-.077,0h-.166l-.091,0-.075,0-.093.01-.072.008-.1.015-.066.011-.117.025-.045.01q-.08.019-.16.043l-.054.017-.1.034-.065.024-.092.035-.067.029-.086.039-.068.034-.082.043-.067.038-.079.047-.066.042-.076.051-.065.046-.074.056-.062.05-.071.06-.06.054-.068.065-.057.057-.065.07-.054.06c-.021.025-.042.05-.063.076l-.05.063c-.021.027-.041.055-.061.083s-.031.043-.046.065-.04.061-.059.091-.028.042-.041.064-.041.071-.061.107c-.011.019-.022.038-.032.057q-.043.081-.082.166l0,.006-1.827,3.983h0a.649.649,0,0,1-.042.076l-.006.01a.6.6,0,0,1-.048.063l-.01.011a.591.591,0,0,1-.054.052l-.01.008a.6.6,0,0,1-.062.044l-.007,0a.583.583,0,0,1-.065.034l-.007,0a.606.606,0,0,1-.07.024l-.013,0a.616.616,0,0,1-.07.014l-.014,0a.619.619,0,0,1-.072,0h-.011a.633.633,0,0,1-.076-.005h-.006a.621.621,0,0,1-.071-.014l-.029-.009-.046-.016-.032-.015-.039-.02-.032-.02-.035-.025-.03-.024-.031-.03-.027-.029c-.01-.011-.019-.024-.028-.036s-.016-.021-.024-.033-.018-.032-.027-.049-.011-.018-.015-.028l-1.827-3.983c-.026-.056-.053-.111-.081-.165l-.01-.018c-.025-.046-.05-.091-.076-.135L216.23,290c-.023-.037-.046-.074-.07-.109l-.029-.043c-.023-.033-.046-.065-.069-.1l-.034-.044q-.035-.045-.071-.089l-.036-.043-.074-.083-.038-.04-.079-.079-.038-.036c-.028-.026-.057-.052-.086-.077l-.035-.031c-.032-.027-.064-.053-.1-.078l-.028-.022q-.061-.046-.124-.089l-.006,0a3.1,3.1,0,0,0-.277-.167l-.023-.012c-.039-.02-.078-.04-.117-.058l-.039-.018-.1-.045-.046-.018-.1-.038-.05-.017-.1-.032-.052-.015-.1-.026-.053-.013-.1-.022-.051-.01-.106-.017-.047-.007-.116-.013-.038,0q-.074-.006-.149-.009h-.006q-.08,0-.159,0h-.009q-.073,0-.145.005l-.042,0-.112.009-.053.006-.1.013-.058.01-.095.017-.06.013-.091.022-.061.016-.09.026-.06.019-.089.031-.058.021-.023.008-.107.044-.009,0c-.041.018-.082.037-.123.057l-.033.016c-.043.022-.086.044-.129.068a3.148,3.148,0,0,0-1.324,1.453l-2.285,4.982h0a3.194,3.194,0,0,1,5.706.2l1.286,2.8,0,.008h0l.012.025,1.64,3.575,0,.009q.031.066.065.128c.009.016.018.031.027.046s.032.056.049.082.023.033.035.05.032.047.049.07l.039.049c.017.021.034.042.051.062l.043.047.054.056.047.044.056.05.049.041.059.045.052.037.061.04.054.033.064.036.055.029.066.031.057.025.068.027.057.021.071.022.057.017.075.018.055.012.082.014.049.008c.039.005.078.009.117.012s.1.006.152.006h.045c.034,0,.068,0,.1,0l.048,0,.093-.01.051-.009.089-.016.052-.012.087-.022.051-.016.085-.029.05-.02.083-.035.048-.023.081-.042.046-.026.08-.049.043-.029c.026-.018.052-.037.078-.056l.04-.031c.026-.021.051-.043.076-.065l.036-.032c.026-.024.05-.049.075-.075l.031-.032c.026-.028.05-.058.075-.087l.024-.029c.027-.034.052-.07.077-.106l.014-.02a2.1,2.1,0,0,0,.16-.287l1.64-3.575.012-.025,0-.008h0l1.286-2.8a3.194,3.194,0,0,1,5.706-.2h0Z" transform="translate(-206.124 -288.48)" fill="url(#linear-gradient)"/>
      </g>
    </g>
  </g>
</svg>
